<svg xmlns="http://www.w3.org/2000/svg" xmlns:xlink="http://www.w3.org/1999/xlink" version="1.1" width="344px" height="344px" style="shape-rendering:geometricPrecision; text-rendering:geometricPrecision; image-rendering:optimizeQuality; fill-rule:evenodd; clip-rule:evenodd">
<g xmlns="http://www.w3.org/2000/svg"/>
<path xmlns="http://www.w3.org/2000/svg" fill="#000000" d="M 152.01,1.99 c 0.04,0.35 0.09,0.69 0.13,1.03 c 0.22,0.63 0.67,0.94 1.36,0.93 c 1.96,0.03 3.93,0.07 5.89,0.14 c 0.85,0.44 1.75,0.71 2.7,0.8 c 1.04,0.27 1.91,0.8 2.61,1.58 c -0.55,0.43 -1.1,0.85 -1.65,1.28 c -0.39,0.14 -0.78,0.28 -1.17,0.43 c -3.07,-0.61 -7.45,0.98 -10.51,1.67 c -3.27,0.29 -6.51,0.75 -9.72,1.37 c -0.3,0.09 -0.53,0.26 -0.71,0.52 c -40.89,8.5 -73.21,33.39 -95.77,67.88 c -2.14,4.44 -4.46,8.77 -6.97,12.99 c -1.3,6.06 5.5,18.23 7.29,24.41 c 2.88,5.99 5.89,11.9 9.01,17.72 c 1.03,-0.75 0.26,-4.98 0.49,-6.25 c 1.74,-8.44 2.56,-18.72 4.04,-27 c 0.57,-3.46 1.37,-6.87 2.4,-10.21 c 0.44,0.66 0.64,1.4 0.59,2.21 c 0.33,5.83 -0.9,11.39 0.97,17 c 0.14,14.02 1.66,27.82 1,42.02 c 0.18,4.73 7.59,2.97 4.03,13.98 c 0.6,3.51 10.84,13.52 13.45,16.5 c 5.7,5.72 11.85,2.03 19.04,3.03 c 12.82,3.77 16.77,13.97 15.5,26.49 c 0.2,3.73 12.31,10.59 14.96,13.93 c 1.65,0.96 3.24,1.98 4.78,3.06 c -0.66,0.49 -1.41,0.65 -2.24,0.48 c -4.97,-0.21 -20.32,-6.55 -23.87,-5.79 c -7.32,4.03 -12.56,3.53 -19.66,-0.75 c -7.03,-6.1 -7.36,-10.82 -9,-18.92 c -0.76,-4.09 1.91,-6.87 0.87,-10.92 c -3.55,-3.75 -6.98,-7.6 -10.3,-11.56 c -1.94,-3.87 -5.66,-5.7 -7.61,-9.46 c -0.85,-0.46 -3,-2.28 -3.82,-0.96 c -1.96,4.22 -3.62,8.55 -4.98,13 c -0.06,1.71 -0.43,3.33 -1.11,4.88 c 0,0.57 0.17,1.09 0.51,1.54 c 4.55,5.63 5.88,7.48 7.44,14.45 c 0.68,17.93 -4.16,26.12 -23.34,24.32 c -11.86,-5.9 -14.43,-13.57 -13.62,-26.32 c 3.9,-10.84 6.26,-14.2 17.93,-15.96 c 1.3,0.66 2.48,0.5 3.52,-0.49 c 2.01,-2.71 3.31,-10.01 3.75,-13.39 c 3.26,-5.91 0.54,-8.82 0.59,-15.01 c -7.88,-18.64 -16.38,-35.69 -20.18,-55.7 c -0.21,-0.75 -0.64,-1.32 -1.28,-1.73 c -1.59,0.43 -3.01,0.14 -4.26,-0.85 c -0.54,-2.34 -1.22,-4.62 -2.06,-6.87 c 0.12,-3.45 3.21,-1.66 4.86,-3.13 c 12.26,-25.78 28.6,-45.44 51.61,-62.3 c 15.75,-10.9 37.18,-20.31 55.85,-23.26 c 4.95,-1.8 11.79,-0.86 16.66,-2.81 Z M 182.1,3.96 c 1.08,0.15 2.85,-0.38 3.63,0.54 c -0.87,0.81 -3.39,0.99 -3.63,-0.54 Z M 241.96,30.78 c -0.31,0.12 -0.61,0.24 -0.92,0.36 c -2.2,-0.08 -2.16,-0.92 -3.65,-1.97 c -8.22,-4.27 -16.57,-8.25 -25.05,-11.96 c -6.49,-1.62 -12.92,-3.46 -19.29,-5.5 c -2.4,-1.01 -1.97,-1.39 -0.94,-3.48 c 2.19,-0.37 4.33,-0.15 6.42,0.66 c 0.59,0.07 1.07,-0.11 1.46,-0.53 c -0.8,-0.25 -1.65,-0.34 -2.54,-0.26 c -0.26,-0.39 -0.53,-0.79 -0.79,-1.2 c -1.03,-0.03 -2.06,-0.04 -3.1,-0.03 c -1.11,-0.76 0.44,-0.88 0.93,-0.84 c 10.31,1.03 37.24,12.71 45.04,19.83 c -0.32,1.08 -0.39,2.18 -0.2,3.29 c 0.74,0.76 1.61,1.3 2.63,1.63 Z M 118.99,55 c 3.82,-18.9 12.05,-28.67 30.66,-34.79 c 17.66,-4.51 28.94,-1.81 45.69,4 c 4.66,2.37 9.35,4.62 14.08,6.75 c 1.39,1.76 -5.2,0.87 -5.82,0.95 c -9.53,-3.52 -29.06,1.49 -37.62,7.65 c -18.59,17.08 -12.82,34.87 -2.81,54.82 c 2.65,4.31 5.45,8.52 8.39,12.65 c 2.84,3.28 8.93,9.88 11.45,13.5 c 15.55,13.42 30.09,29.56 44.97,43.95 c 2.37,3.28 7.81,10.28 10.46,13.49 c 0.45,1.13 1.09,2.13 1.95,2.98 c 0.27,0.33 0.24,0.62 -0.07,0.88 c -1.4,0.2 -7.95,-5.95 -9.29,-7.27 c -17.86,-12.77 -36.19,-23.95 -55.05,-35.13 c -26.81,-17.52 -51.17,-38.71 -56.96,-71.92 c -0.02,-4.17 -0.03,-8.34 -0.03,-12.51 Z M 91.99,74 c 0.98,-6.14 2.58,-16.76 6.18,-22.35 c 7.03,-11.54 13.69,-17.56 24.86,-24.99 c 0.37,-0.3 0.79,-0.45 1.27,-0.44 c 0.8,0.72 -1.47,2.14 -1.75,2.74 c -3.98,5.93 -6.07,11.97 -8.34,18.69 c -0.1,1.69 -0.5,3.3 -1.19,4.84 c -0.27,6.13 -0.25,12.88 0,19.02 c 0.74,1.54 1.1,3.17 1.08,4.89 c 7.59,27.34 26.63,45.87 48.87,62.03 c 22.04,13.75 46.61,26.95 66.56,43.58 c 20.15,18.79 33.47,34.94 39.39,62.5 c 0.42,33.29 -6.22,52.87 -37.58,67.3 c -3.1,1.1 -6.11,2.39 -9.02,3.9 c -1.05,0.22 -2.05,0.56 -3.01,1.03 c -1.07,-0.04 -1.19,-0.45 -0.36,-1.23 c 2.04,-1.32 4.07,-2.68 6.08,-4.07 c 7.89,-7.76 13.94,-19.77 14.04,-30.94 c 2.21,-9.3 -2.43,-24.8 -6.27,-33.83 c -14.23,-30.95 -40.54,-50.79 -68.77,-68.34 c -3.31,-2.64 -7.31,-5.45 -10.03,-8.68 c -34.52,-16.79 -61.5,-57.18 -62.01,-95.65 Z M 153.24,182.94 c 1.08,1.65 2.38,3.12 3.89,4.41 c 0.72,0.11 1.36,-0.09 1.92,-0.6 c 2.08,2.53 12.62,7.23 15.95,9.86 c 22.07,15.9 42.26,34.03 51.74,60.32 c 8.37,29.86 -0.12,54.76 -30.4,65.85 c -3.55,1.17 -7.12,2.19 -10.71,3.05 c -0.46,-0.24 -0.59,-0.6 -0.4,-1.08 c 2.58,-2.04 4.98,-4.28 7.21,-6.72 c 16.24,-22.74 9.88,-48.97 -1.95,-72.02 c -12.08,-23.7 -33.47,-37.24 -53.34,-53.67 c -27.23,-15.6 -63.58,-46.53 -67.3,-79.71 c -2.8,-8.75 -2.16,-22.15 0.26,-31.11 c 5.56,-18.88 11.34,-27.07 25.85,-39.85 c 0.29,-0.25 0.56,-0.24 0.82,0.03 c 0.52,1.42 -3.24,3.4 -3.65,4.91 c -9.56,19.61 -10.43,37.89 -4.92,58.74 c 11.71,37.6 34,55.88 65.03,77.59 Z M 278.02,100.09 c 0.92,-0.61 1.5,-2.24 0.53,-3.06 c -0.96,0.78 -0.44,2.01 -0.53,3.06 c -0.33,0.09 -0.58,0.28 -0.76,0.59 c -1.18,7.49 -1.25,13.14 -1.27,20.83 c 1.4,3.96 1.08,6.61 0.91,10.97 c -0.93,4.37 -6.11,3.81 -6.7,6.14 c 0.37,1.26 0.64,2.54 0.82,3.86 c 0.05,4.64 -0.02,9.26 -0.22,13.88 c -0.71,3.58 -4.61,3.43 -7.3,4.58 c -24.27,0.29 -24.36,0.85 -26.49,-23.42 c 0.08,-8.57 -0.67,-17.16 -3.94,-25.15 c 0.11,-0.76 0.17,-1.49 0.18,-2.19 c -11.46,-4.38 -20.68,-11.41 -32.9,-13.98 c -4.78,-0.51 -11.1,-2.33 -15.7,-2.35 c -0.46,-0.54 -0.85,-1.12 -1.17,-1.75 c -1.38,0.89 -2.66,1.34 -3.89,-0.12 c -5.67,-9.99 -6.11,-21.62 -2.38,-32.35 c 1.23,-2.32 1.92,-2.19 4.1,-1.82 c 0.22,-0.55 0.34,-1.13 0.35,-1.75 c 1.83,-1.81 7.43,-0.79 9.85,-1.05 c 1.89,-0.73 3.85,-1.1 5.88,-1.12 c 12.5,-3.29 24.53,-9.05 37.12,-11.81 c 19.89,-1.13 35.37,5.22 53.49,12.46 c 10.3,4.66 17.84,9.47 26.47,16.41 c 1.1,1.73 0.26,11.91 0.54,14.57 c 0.04,0.58 -0.17,1.02 -0.64,1.35 c -7.62,0.13 -15.26,0.18 -22.89,0.12 c -2.38,0.11 -1.64,3.01 0.04,2.95 c 4.66,0.05 9.32,0.08 13.99,0.1 c 2.91,0.69 5.87,1.06 8.86,1.09 c 0.17,0.17 0.33,0.33 0.5,0.5 c 0.04,1.26 0.68,5.51 -0.5,6.22 c -6.39,0.56 -16.02,-0.14 -22.85,0.21 c -2.16,0.25 -1.96,3.18 -0.04,2.95 c 7.33,-0.03 14.67,-0.01 22,0.05 c 2.28,0.06 3.47,6.67 1.85,7.76 c -7.61,0.18 -15.23,0.24 -22.85,0.19 c -2.99,-0.22 -2.9,3.14 0,2.98 c 7.01,0.01 14.03,0.01 21.04,0 c 0.58,-0.04 1.05,0.17 1.4,0.62 c -0.02,1.99 0.13,3.96 0.45,5.93 c -0.01,0.65 -0.33,1.07 -0.95,1.26 c -7.31,0.21 -14.62,0.27 -21.94,0.19 c -2.42,0.13 -1.81,3.3 0,3.02 c 7.02,-0.02 14.03,-0.02 21.05,0.01 c 0.76,-0.01 1.31,0.31 1.66,0.95 c -0.31,1.46 0.3,6.27 -0.82,6.9 c -7.29,0.14 -14.59,0.18 -21.89,0.12 c -2.42,0.13 -1.81,3.3 0,3.02 c 7.01,-0.01 14.03,-0.02 21.04,-0.02 c 0.58,-0.04 1.02,0.17 1.35,0.64 c 0.04,1.27 0.68,5.51 -0.5,6.24 c -7.29,0.14 -14.59,0.18 -21.89,0.12 c -1.4,0.2 -1.87,1 -1.39,2.38 c 1.53,2.15 20.87,-1.38 23.64,2.27 c -0.59,1.51 -0.89,3.09 -0.87,4.73 c -0.16,0.17 -0.32,0.33 -0.49,0.49 c -2.02,0.05 -3.98,0.43 -5.86,1.15 c -5.01,-0.01 -10.02,-0.01 -15.03,-0.02 c -2.01,-0.02 -1.85,2.11 0,2.02 c 3.06,-0.13 6.07,0.2 9.01,0.99 c 3.68,0 7.36,0 11.04,-0.01 c 2.57,-0.04 0.59,2.26 0.5,3.5 c -0.27,1.19 0.5,2.56 -0.66,3.38 c -6.62,0.13 -13.26,0.18 -19.89,0.12 c -1.46,0.15 -1.75,0.78 -0.87,1.91 c 0.89,0.56 1.85,0.92 2.88,1.08 c 5.3,-0.03 10.59,0.03 15.88,0.15 c 0.47,0.33 0.68,0.77 0.64,1.35 c 0.01,3.67 -0.01,7.35 -0.07,11.02 c -0.5,1.49 -1.02,2.96 -1.58,4.39 c -1.41,0.63 -2.82,1.21 -4.22,1.75 c -1.46,23.12 -5.08,51.62 -31.65,58.92 c -1.59,-0.98 3,-5.8 3.95,-6.53 c 4.72,-6.43 8.04,-12.35 11.34,-19.69 c 1.61,-4.97 5.95,-27.53 3.76,-31.42 c -12.63,-6.95 -11.68,-11.84 -11.54,-25.43 c -2.88,-19.67 -3.32,-39.24 -2.98,-59.4 Z M 238.59,42.61 c 0.1,0.54 0.39,0.94 0.88,1.19 c 1,-0.56 -0.58,-1.07 -0.88,-1.19 Z M 269.71,42.9 c 0.76,-0.04 1.42,0.16 2,0.61 c -0.85,0.56 -1.52,0.36 -2,-0.61 Z M 285.81,48.96 c 0.48,0.04 0.86,0.26 1.12,0.66 c -0.59,0.22 -0.96,0 -1.12,-0.66 Z M 293.88,53.04 c 0.47,-0.01 0.83,0.19 1.06,0.58 c -0.58,0.26 -0.93,0.07 -1.06,-0.58 Z M 184.96,84.01 c -0.06,0.66 0.13,1.23 0.58,1.7 c 0.32,-0.71 1.07,-5.71 -0.49,-4.16 c -0.12,0.82 -0.15,1.63 -0.09,2.46 Z M 184.08,87.12 c -0.06,0.72 0.15,1.35 0.61,1.89 c 0.62,-0.53 0.41,-2.18 -0.61,-1.89 Z M 183.05,91.09 c 0.63,-0.14 0.81,-0.48 0.53,-1.02 c -0.38,0.23 -0.55,0.57 -0.53,1.02 Z M 10.99,158 c -0.03,-1.58 0.3,-3.07 0.99,-4.49 c -0.39,-15.51 2.84,-27.43 7.05,-42.03 c 0.14,-0.62 0.1,-1.23 -0.11,-1.83 c 0.81,-1.55 1.22,-3.22 1.23,-5 c 0.44,-0.65 1.03,-1.1 1.79,-1.33 c 1.64,-0.29 3.22,-0.72 4.76,-1.31 c 0.87,1.43 1.63,2.92 2.29,4.48 c -1.68,12.64 -6.38,25.09 -6.02,38.03 c -2.62,13.19 -0.17,30.51 1.12,43.88 c 3.13,5.5 -5.26,12.29 -4.08,19.11 c 0.62,1.6 1.86,5.96 0.43,7.25 c -0.99,-3.13 -2.07,-6.27 -3.23,-9.41 c -3.41,-14.84 -6.04,-31.99 -6.22,-47.35 Z M 323.92,114.84 c 0.98,0.41 1.18,1.03 0.59,1.86 c -0.45,-0.53 -0.64,-1.15 -0.59,-1.86 Z M 321.29,120.06 c 0.5,-0.01 1.01,-0.01 1.52,-0.02 c 0.08,4.1 0.73,6.65 2.06,10.48 c 0.4,6.35 4.27,9.89 3.22,16.97 c 1.24,4.91 1.81,22.33 1.76,27.99 c -1.52,3.14 -0.61,7.6 -0.84,11.03 c -1.54,5.68 -1.05,11.26 -1.76,17.03 c -1.53,2.87 -2.06,5.91 -2.35,9.18 c -0.98,0.46 -2.06,6.42 -1.86,7.79 c -0.58,1.7 -1.23,3.36 -1.94,5 c 0.09,0.5 0.35,0.91 0.78,1.21 c -2.55,0.69 -1.26,3.08 -2.54,4.9 c 0.13,0.83 0.38,1.63 0.75,2.4 c 0.21,0.46 0.53,0.83 0.95,1.11 c -0.57,5.79 -8.53,19.16 -11.22,25.25 c -12.5,20.91 -28.12,39.64 -47.79,54.06 c -30.55,19.88 -55.09,27.06 -91.53,26.57 c -3.33,-0.97 -15.26,-1.41 -18.14,-2.82 c -22.93,-3.58 -49.02,-16.52 -67.39,-30.75 c -6.73,-6.31 -17.62,-13.84 -22.53,-21.47 c -15.03,-15.68 -28.82,-36.35 -36.52,-56.8 c 0.26,-0.05 0.51,-0.1 0.76,-0.15 c 4.52,3 5.02,6.55 10.85,7.85 c 1.3,0.51 4.62,-0.51 5.36,0.77 c 1.99,3.12 3.75,6.37 5.28,9.74 c 5.58,7.69 10.58,16.86 17.27,23.59 c 5.6,8.11 15.91,16.07 23.03,23.03 c 17.3,13.82 33.55,22.06 54.91,28.21 c 1.06,0.64 3.89,3.55 4.03,0.45 c -0.7,-1.39 -1.62,-2.61 -2.76,-3.68 c -11.98,-22.56 6.53,-49.37 31.37,-35.42 c 2.58,1.78 4.37,4.28 6.42,6.41 c 8.65,15.41 5.65,32.77 -11.15,40.48 c 0.33,0.3 0.72,0.45 1.17,0.47 c 7.53,0.64 19.35,0.45 26.14,-1.84 c 17.36,-1.42 47.4,-15.61 60.38,-27.5 c 5.67,-3.8 15.16,-14.18 20.46,-19.55 c 0.86,-1.65 4.67,-6.71 6,-8 c 4.79,-6.67 9.03,-13.75 13.39,-20.65 c 11.25,-20.76 20.78,-46.72 22.19,-69.89 c 1.33,-3.4 1.22,-15.35 1.89,-18.89 c -2.27,-6.01 0.29,-16.87 -1.58,-23.96 c 1.82,-4.73 -1.68,-14.7 -0.04,-20.58 Z M 328.01,132 c -0.12,-0.71 0.03,-1.35 0.44,-1.9 c 0.71,0.87 0.72,1.73 0.04,2.58 c -0.3,-0.12 -0.46,-0.35 -0.48,-0.68 Z M 329.99,140.99 c -0.06,-0.4 0.08,-0.68 0.41,-0.85 c 0.97,1.08 0.94,3.47 0.08,4.58 c -0.93,-0.78 -0.33,-2.64 -0.49,-3.73 Z M 330.98,147 c -0.06,-0.38 0.08,-0.64 0.42,-0.79 c 0.99,1.02 0.92,3.44 0.1,4.52 c -0.94,-0.79 -0.35,-2.63 -0.52,-3.73 Z M 55.97,160 c 2.15,5.35 7.38,4.91 6.11,-0.64 c -1.23,-3.18 -4.99,-2.12 -6.11,0.64 Z M 242.96,163 c 0.76,-1.9 1.04,-1.47 2.67,-1 c 7.3,0.01 14.59,0 21.89,-0.01 c 0.58,-0.04 1.02,0.17 1.35,0.64 c 0.18,3.24 0.17,6.48 -0.01,9.72 c -0.23,0.5 -0.6,0.86 -1.1,1.08 c -1.19,0.32 -2.29,0.82 -3.3,1.48 c -5.25,11.69 6.78,36.2 14.37,45.73 c -0.07,1.34 -0.69,1.62 -1.86,0.84 c -3.64,-3.66 -8.13,-7.14 -11.97,-10.95 c -5.01,-7 -9.6,-12.54 -11.79,-21.18 c -0.65,-1.93 -1.25,-8.17 -2.09,-9.87 c -0.43,-1.45 0.63,-5.2 -1.67,-5.38 c -2.03,0.16 -3.79,-0.43 -5.3,-1.75 c -0.28,-3.41 0.23,-6.1 -1.19,-9.35 Z M 87.88,205 c -0.35,14.26 15.67,21.66 21.93,7.36 c 0.95,-8.38 -0.82,-16.02 -9.44,-19.2 c -8.52,-1.36 -12.95,3.66 -12.49,11.84 Z M 31.84,208 c -0.38,7.63 1.93,11.32 8.8,14.81 c 9.08,0.92 11.46,-0.33 15.17,-8.45 c 2.69,-24.31 -24.46,-25.18 -23.97,-6.36 Z M 126.72,210.78 c 8.31,6.25 21.92,10.58 28.72,18.19 c 0.6,1.27 1.33,2.44 2.18,3.53 c -0.19,0.37 -0.5,0.48 -0.91,0.31 c -1.2,-0.54 -2.45,-0.97 -3.73,-1.29 c -9.39,-4.91 -16.49,-6.99 -23.42,-15.49 c -0.56,-1.92 -2.96,-3.3 -2.84,-5.25 Z M 21.01,217 c 0.57,-0.93 0.86,-0.82 0.85,0.34 c -0.46,0.47 -0.74,0.36 -0.85,-0.34 Z M 21.78,218.94 c 1.06,0.29 1.31,0.88 0.73,1.76 c -0.46,-0.49 -0.7,-1.08 -0.73,-1.76 Z M 23,221.95 c 0.94,0.38 1.11,0.96 0.5,1.74 c -0.43,-0.49 -0.59,-1.07 -0.5,-1.74 Z M 69.96,248.93 c 4.78,-0.2 10.04,0.93 14.54,-0.89 c 2.33,-0.28 7.63,0.42 9.56,-0.43 c 2.32,-1.15 2.13,-1.69 -0.56,-1.64 c -1.33,0.33 -2.66,0.67 -3.98,1.02 c -2.34,0 -4.69,0.01 -7.03,0.02 c -3.7,1.73 -7.08,0.7 -11.01,1 c -0.69,0.03 -1.19,0.34 -1.52,0.92 c -3.03,0.16 -5.12,-3.7 -1.48,-3.89 c 1.36,-0.04 2.71,-0.05 4.06,-0.03 c 1.67,-0.34 1.67,-0.68 0.01,-1.02 c -2.56,-0.12 -5.08,0.02 -7.57,0.41 c -1.03,-0.93 -1.05,-1.9 -0.03,-2.89 c 6.18,-2.71 11.06,-1.06 17.56,-1.53 c 1.44,-0.57 2.89,-1.07 4.34,-1.49 c -0.77,-0.97 -3.23,-0.3 -4.36,-0.5 c -6.22,1.86 -13.33,1.05 -19.81,0.82 c -0.55,-1.12 -1.05,-2.27 -1.5,-3.47 c -0.33,-0.85 -0.18,-1.59 0.44,-2.21 c 12.77,-1.26 24.77,-2.55 37.89,-2.11 c 8.19,1.99 11.27,3.08 17.36,8.68 c 8.25,10.34 16.8,21.24 27.1,29.74 c 3.56,2.4 7.04,4.91 10.46,7.5 c 0.23,0.34 0.2,0.65 -0.11,0.92 c -10.69,3.97 -13.63,10.39 -17.43,20.51 c -0.34,0.47 -0.81,0.67 -1.39,0.62 c -15.74,-5.68 -29.24,-10.09 -42.53,-20.55 c -0.38,-0.59 -3.33,-2.53 -2.31,-3.27 c 1.73,0.01 3.38,-0.35 4.94,-1.08 c 6.25,0.51 11.76,-1.6 17.94,-1.09 c 1.58,-0.33 1.59,-0.69 0,-1.1 c -6.01,0.11 -12.03,0.13 -18.04,0.08 c -3.84,0.38 -7.65,2.35 -10.83,-0.94 c -0.22,-1.37 0.39,-2.04 1.81,-2.02 c 7.53,-0.11 15.72,-2.17 23.05,-2.02 c 1.6,-0.34 1.6,-0.67 0.01,-1 c -8.32,-0.01 -15.89,1.07 -24.05,1 c -2.77,0.5 -3.69,1.9 -5.97,-0.97 c -1.71,-2.42 1.71,-2.03 2.99,-2.05 c 6.85,-2.28 16.86,-0.37 23.38,-2.55 c 1.29,-0.75 1.17,-1.23 -0.36,-1.43 c -2.11,-0.29 -4.13,0.02 -6.04,0.92 c -7.86,-0.03 -14.84,1.93 -22.87,0.95 c -0.87,-0.92 -0.87,-1.83 0,-2.75 c 9.27,-0.92 18.28,-1.63 27.63,-2.37 c 0.26,-0.25 0.27,-0.52 0.03,-0.79 c -1.02,-1.66 -2.57,-0.42 -3.88,-0.03 c -7.83,-0.43 -15.05,1.72 -22.91,1.09 c -0.94,0.36 -1.89,0.62 -2.87,0.78 c -1.41,-0.46 -3.37,-3.06 -1.03,-3.64 c 8.94,-0.69 17.94,-1.47 26.84,-2.46 c 0.32,-0.27 0.39,-0.6 0.22,-0.99 c -2.33,0.29 -4.72,0.38 -7.16,0.28 c -5.38,1.85 -10.4,0.69 -16,1.01 c -2.94,0.6 -4.26,1.83 -7.55,0.5 c -1.01,-1.16 -1.01,-2.35 0.02,-3.57 Z M 319.07,237.15 c 0.73,-0.06 0.93,-0.39 0.6,-0.97 c -0.42,0.17 -0.62,0.5 -0.6,0.97 Z M 96.75,247.03 c 0.48,0.03 0.82,-0.16 1.03,-0.58 c -0.6,-0.37 -0.94,-0.17 -1.03,0.58 Z M 149.96,305.02 c 2.41,7.69 3.69,11.97 12.53,14.96 c 20.99,1.23 16.96,-32.11 -1,-29.97 c -10.24,3.45 -9.21,5.44 -11.53,15.01 Z M 155.02,305 c 4.6,-17.53 24.39,-1.43 12.03,8.47 c -1.2,0.82 -5.89,0.8 -7.1,0 c -3.46,-3.24 -3.95,-3.74 -4.93,-8.47 Z M 147.63,323.62 c 0.11,0.55 0.42,0.93 0.93,1.13 c 1.13,-0.48 -0.78,-1.01 -0.93,-1.13 Z" style="&#10;"/>

























</svg>